<svg xmlns="http://www.w3.org/2000/svg" xmlns:xlink="http://www.w3.org/1999/xlink" width="400" height="400" viewBox="0 0 400 400" fill="none"><defs><rect id="path_0" x="0" y="0" width="338" height="390" /><linearGradient id="linear_0" x1="0%" y1="0%" x2="64.279%" y2="76.604%" gradientUnits="objectBoundingBox"><stop offset="0" stop-color="#4287F0" stop-opacity="1" /><stop offset="1" stop-color="#00B7EE" stop-opacity="1" /></linearGradient><linearGradient id="linear_1" x1="50%" y1="86.603%" x2="0%" y2="0%" gradientUnits="objectBoundingBox"><stop offset="0" stop-color="#557AF1" stop-opacity="1" /><stop offset="1" stop-color="#00B7EE" stop-opacity="1" /></linearGradient><linearGradient id="linear_2" x1="0%" y1="100%" x2="1%" y2="0%" gradientUnits="objectBoundingBox"><stop offset="0" stop-color="#4784F1" stop-opacity="1" /><stop offset="1" stop-color="#388EF0" stop-opacity="1" /></linearGradient></defs><g opacity="1" transform="translate(0 0)  rotate(0 200 200)"><g opacity="1" transform="translate(31 5)  rotate(0 169 195)"><mask id="bg-mask-0" fill="white"><use xlink:href="#path_0"></use></mask><g mask="url(#bg-mask-0)" ><path id="路径 1" fill-rule="evenodd" fill="url(#linear_0)" transform="translate(0 0)  rotate(0 169 111.653)" opacity="1" d="M101.22,106.79L101.37,107.04L169,68L279,131.5L279,189.24L338,223.31L338,97.5L169,0L30.17,80.09L0,97.5L0,130.8L0,131.2L59,165.26L59,131.66L58.78,131.29L59,131.16L59,131L59.28,131L101.22,106.79Z " /><path id="路径 2" fill-rule="evenodd" fill="url(#linear_1)" transform="translate(0 165.837)  rotate(0 169 112.0815)" opacity="1" d="M278.78,93.02L278.51,93.02L236.96,117.16L236.87,116.99L169,156.16L59,92.66L59,34.06L0,0L0,126.66L169,224.16L309.02,143.38L338,126.66L338,92.11L278.78,57.92L278.78,92.36L279,92.73L278.78,92.86L278.78,93.02Z " /><path id="路径 3" fill-rule="evenodd" fill="url(#linear_2)" transform="translate(67 118.56800000000001)  rotate(0 101.92949999999999 76.06050000000002)" opacity="1" d="M86.67,32.83L29.81,0L0,17.21L0,50.92L175.29,152.12L203.86,135.52L203.86,100.62L86.61,32.92L86.67,32.83Z " /></g></g></g></svg>